<svg xmlns="http://www.w3.org/2000/svg" viewBox="0 0 1575.3 1403.9">
    <g>
      <g id="Warstwa_2">
        <path class="st0" d="m440 751.5 197.8 74.2c3.5 1.3 5.8 4.7 5.8 8.4V941c0 6.3-6.3 10.6-12.2 8.4l-197.8-74.2c-3.5-1.3-5.8-4.7-5.8-8.4V759.9c.1-6.2 6.4-10.6 12.2-8.4z"/>
        <path class="st0" d="M1575 987.8c1.4 4.8-1.4 9.7-6.1 11.1-44 12.7-86.1 29.8-125.9 50.6-112.5 58.9-206.6 148.2-271.4 256.9L989 1397.7c-7.2 3.6-15.2-3.3-12.5-11 67-195.1 204.8-357.2 382.7-455.7 12-6.7 24.2-13 36.6-19.1 3.9-1.9 5.9-6.4 4.7-10.5L1330.3 657c-.3-1-.8-2-1.4-2.8l-98.9-136c-4.3-5.9-.1-14.3 7.3-14.3h37.1c6 0 10.3-5.7 8.7-11.5L1190.6 170c-1.4-5-6.8-7.8-11.7-6-57.3 21.3-107 58.3-143.7 105.9-30.4 39.4-52 85.9-61.7 136.7-.8 4.2-4.5 7.3-8.8 7.3h-354c-4.3 0-8-3.1-8.8-7.3-9.7-50.8-31.3-97.3-61.7-136.7-36.7-47.5-86.4-84.6-143.7-105.9-4.9-1.8-10.3 1-11.7 6l-92.5 322.4c-1.6 5.8 2.7 11.5 8.7 11.5h37c7.4 0 11.6 8.3 7.3 14.3l-98.9 136c-.6.9-1.1 1.8-1.4 2.8l-70.1 244.5c-1.2 4.2.8 8.6 4.7 10.5 12.4 6.1 24.6 12.4 36.6 19.1 177.9 98.5 315.7 260.7 382.7 455.7 2.6 7.6-5.4 14.6-12.5 11l-182.6-91.3c-64.8-108.8-158.9-198.1-271.4-256.9-39.8-20.9-82-37.9-125.9-50.6-4.8-1.4-7.5-6.4-6.1-11.1L281.8 6.5c1.1-3.9 4.7-6.6 8.8-6.5 47.5.7 93.4 8.5 136.5 22.3 122.6 39.4 223.1 128 278.4 242.6 1.5 3.1 4.6 5 8.1 5h148.3c3.4 0 6.6-2 8.1-5 55.3-114.6 155.8-203.2 278.4-242.6C1191.5 8.4 1237.3.7 1284.9 0c4.1-.1 7.7 2.6 8.8 6.5L1575 987.8z"/>
        <path class="st0" d="m1135.3 751.5-197.8 74.2c-3.5 1.3-5.8 4.7-5.8 8.4V941c0 6.3 6.3 10.6 12.2 8.4l197.8-74.2c3.5-1.3 5.8-4.7 5.8-8.4V759.9c0-6.2-6.3-10.6-12.2-8.4zM856 1223.9H719.4c-2.4 0-4.7 1-6.4 2.6l-46.9 47.1c-2.6 2.6-3.3 6.5-1.9 9.9l49.1 114.9c1.4 3.3 4.7 5.5 8.3 5.5h132.1c3.6 0 6.8-2.1 8.3-5.4l49.4-114.9c1.5-3.4.7-7.3-1.9-9.9l-47.2-47.1c-1.7-1.7-4-2.7-6.3-2.7z"/>
      </g>
    </g>
    <style>
        path { fill: #000; }
        @media (prefers-color-scheme: dark) {
            path { fill: #FFF; }
        }
    </style>
</svg>
